{"asset":{"version":"2.0","generator":"Blockbench 4.12.6 glTF exporter"},"scenes":[{"nodes":[5,9,15],"name":"blockbench_export"}],"scene":0,"nodes":[{"translation":[0,-1.178125,0.578125],"name":"horns"},{"translation":[-0.1875,0.3125,-0.09375],"name":"ear_l"},{"translation":[0.1875,0.3125,-0.09375],"name":"ear_r"},{"rotation":[-0.10886687485196457,0,0,0.9940563382223196],"translation":[0,-0.07187499999999991,-0.078125],"name":"head2","children":[0,1,2]},{"name":"head","children":[3]},{"translation":[0,1.25,-0.5],"name":"head","mesh":0,"children":[4],"skin":0},{"translation":[0,-0.3125,-0.4375],"name":"udders"},{"rotation":[-0.061628416716219436,-0.7044160264027586,0.061628416716219325,0.7044160264027586],"translation":[0,-0.49472125,0.162896875],"name":"tail"},{"rotation":[-0.7071067811865475,0,0,0.7071067811865476],"name":"body","children":[6,7]},{"rotation":[-0.7071067811865475,0,0,0.7071067811865476],"translation":[0,1.1875,0.125],"name":"body","mesh":1,"children":[8],"skin":1},{"translation":[0.21875,0,-0.49375],"name":"leg_fr"},{"translation":[-0.21875,0,-0.5],"name":"leg_fl"},{"translation":[0.25,0,0.4375],"name":"leg_br"},{"translation":[-0.25,0,0.4375],"name":"leg_bl"},{"name":"Legs","children":[10,11,12,13]},{"translation":[0,0.6875,0.0625],"name":"Legs","mesh":2,"children":[14],"skin":2}],"bufferViews":[{"buffer":0,"byteOffset":0,"byteLength":2016,"target":34962,"byteStride":12},{"buffer":0,"byteOffset":2016,"byteLength":2016,"target":34962,"byteStride":12},{"buffer":0,"byteOffset":4032,"byteLength":1344,"target":34962,"byteStride":8},{"buffer":0,"byteOffset":5376,"byteLength":1344,"target":34962,"byteStride":8},{"buffer":0,"byteOffset":6720,"byteLength":2688,"target":34962,"byteStride":16},{"buffer":0,"byteOffset":9408,"byteLength":504,"target":34963},{"buffer":0,"byteOffset":9912,"byteLength":864,"target":34962,"byteStride":12},{"buffer":0,"byteOffset":10776,"byteLength":864,"target":34962,"byteStride":12},{"buffer":0,"byteOffset":11640,"byteLength":576,"target":34962,"byteStride":8},{"buffer":0,"byteOffset":12216,"byteLength":576,"target":34962,"byteStride":8},{"buffer":0,"byteOffset":12792,"byteLength":1152,"target":34962,"byteStride":16},{"buffer":0,"byteOffset":13944,"byteLength":216,"target":34963},{"buffer":0,"byteOffset":14160,"byteLength":1152,"target":34962,"byteStride":12},{"buffer":0,"byteOffset":15312,"byteLength":1152,"target":34962,"byteStride":12},{"buffer":0,"byteOffset":16464,"byteLength":768,"target":34962,"byteStride":8},{"buffer":0,"byteOffset":17232,"byteLength":768,"target":34962,"byteStride":8},{"buffer":0,"byteOffset":18000,"byteLength":1536,"target":34962,"byteStride":16},{"buffer":0,"byteOffset":19536,"byteLength":288,"target":34963},{"buffer":0,"byteOffset":19824,"byteLength":320},{"buffer":0,"byteOffset":20144,"byteLength":192},{"buffer":0,"byteOffset":20336,"byteLength":320},{"buffer":0,"byteOffset":20656,"byteLength":68},{"buffer":0,"byteOffset":20724,"byteLength":272},{"buffer":0,"byteOffset":20996,"byteLength":68},{"buffer":0,"byteOffset":21064,"byteLength":272},{"buffer":0,"byteOffset":21336,"byteLength":68},{"buffer":0,"byteOffset":21404,"byteLength":272},{"buffer":0,"byteOffset":21676,"byteLength":68},{"buffer":0,"byteOffset":21744,"byteLength":272},{"buffer":0,"byteOffset":22016,"byteLength":4},{"buffer":0,"byteOffset":22020,"byteLength":16},{"buffer":0,"byteOffset":22036,"byteLength":4},{"buffer":0,"byteOffset":22040,"byteLength":16},{"buffer":0,"byteOffset":22056,"byteLength":4},{"buffer":0,"byteOffset":22060,"byteLength":16},{"buffer":0,"byteOffset":22076,"byteLength":4},{"buffer":0,"byteOffset":22080,"byteLength":16}],"buffers":[{"byteLength":22096,"uri":"data:application/octet-stream;base64,"}],"accessors":[{"bufferView":0,"componentType":5126,"count":168,"max":[0.4375,0.3925999402999878,0.050530873239040375],"min":[-0.4375,-0.43107739090919495,-0.6814014315605164],"type":"VEC3"},{"bufferView":1,"componentType":5126,"count":168,"max":[1,0.9762960076332092,0.9762960076332092],"min":[-1,-0.9762960076332092,-0.9762960076332092],"type":"VEC3"},{"bufferView":2,"componentType":5126,"count":168,"max":[0.999755859375,0.562255859375],"min":[0.000244140625,0.000244140625],"type":"VEC2"},{"bufferView":3,"componentType":5123,"count":168,"max":[0,4,0,0],"min":[0,1,0,0],"type":"VEC4"},{"bufferView":4,"componentType":5126,"count":168,"max":[0,1,0,0],"min":[0,1,0,0],"type":"VEC4"},{"bufferView":5,"componentType":5123,"count":252,"max":[167],"min":[0],"type":"SCALAR"},{"bufferView":6,"componentType":5126,"count":72,"max":[0.34375,0.6875,0.1875],"min":[-0.34375,-0.6519421935081482,-0.7054675817489624],"type":"VEC3"},{"bufferView":7,"componentType":5126,"count":72,"max":[1,1,1],"min":[-1,-1,-1],"type":"VEC3"},{"bufferView":8,"componentType":5126,"count":72,"max":[0.999755859375,0.702880859375],"min":[0.218994140625,0.000244140625],"type":"VEC2"},{"bufferView":9,"componentType":5123,"count":72,"max":[0,2,0,0],"min":[0,0,0,0],"type":"VEC4"},{"bufferView":10,"componentType":5126,"count":72,"max":[0,1,0,0],"min":[0,1,0,0],"type":"VEC4"},{"bufferView":11,"componentType":5123,"count":108,"max":[71],"min":[0],"type":"SCALAR"},{"bufferView":12,"componentType":5126,"count":96,"max":[0.3125,0,0.550000011920929],"min":[-0.3125,-0.6875,-0.6187499761581421],"type":"VEC3"},{"bufferView":13,"componentType":5126,"count":96,"max":[1,1,1],"min":[-1,-1,-1],"type":"VEC3"},{"bufferView":14,"componentType":5126,"count":96,"max":[0.218505859375,0.734130859375],"min":[0.000244140625,0.500244140625],"type":"VEC2"},{"bufferView":15,"componentType":5123,"count":96,"max":[0,4,0,0],"min":[0,1,0,0],"type":"VEC4"},{"bufferView":16,"componentType":5126,"count":96,"max":[0,1,0,0],"min":[0,1,0,0],"type":"VEC4"},{"bufferView":17,"componentType":5123,"count":144,"max":[95],"min":[0],"type":"SCALAR"},{"bufferView":18,"componentType":5126,"count":5,"max":[1,0,0,0,0,1,0.2164396196603775,0,0,0,1,0,0.1875,1.2313868999481201,0.18557971715927124,1],"min":[1,0,0,0,0,0.9762960076332092,0,0,0,-0.2164396196603775,0.9762960076332092,0,-0.1875,-0.259238064289093,-0.48629528284072876,1],"type":"MAT4"},{"bufferView":19,"componentType":5126,"count":3,"max":[1,1.1177884846820155e-16,0,0,0.9848077297210693,2.220446049250313e-16,1,0,0,-0.9848077297210693,2.220446049250313e-16,0,0,0.5154920816421509,0.4375,1],"min":[2.45179615813388e-16,0,-1,0,0,-0.1736481785774231,3.014984923691916e-16,0,-0.1736481785774231,-1,-2.0817294487119464e-16,0,-0.07451466470956802,0,0,1],"type":"MAT4"},{"bufferView":20,"componentType":5126,"count":5,"max":[1,0,0,0,0,1,0,0,0,0,1,0,0.25,0,0.5,1],"min":[1,0,0,0,0,1,0,0,0,0,1,0,-0.25,0,-0.4375,1],"type":"MAT4"},{"bufferView":21,"componentType":5126,"count":17,"max":[1],"min":[0],"type":"SCALAR"},{"bufferView":22,"componentType":5126,"count":17,"max":[0.1736481785774231,0,0,1],"min":[-0.17615272104740143,0,0,0.9843628406524658],"type":"VEC4"},{"bufferView":23,"componentType":5126,"count":17,"max":[1],"min":[0],"type":"SCALAR"},{"bufferView":24,"componentType":5126,"count":17,"max":[0.17615272104740143,0,0,1],"min":[-0.1736481785774231,0,0,0.9843628406524658],"type":"VEC4"},{"bufferView":25,"componentType":5126,"count":17,"max":[1],"min":[0],"type":"SCALAR"},{"bufferView":26,"componentType":5126,"count":17,"max":[0.17615272104740143,0,0,1],"min":[-0.1736481785774231,0,0,0.9843628406524658],"type":"VEC4"},{"bufferView":27,"componentType":5126,"count":17,"max":[1],"min":[0],"type":"SCALAR"},{"bufferView":28,"componentType":5126,"count":17,"max":[0.1736481785774231,0,0,1],"min":[-0.17615272104740143,0,0,0.9843628406524658],"type":"VEC4"},{"bufferView":29,"componentType":5126,"count":1,"max":[0],"min":[0],"type":"SCALAR"},{"bufferView":30,"componentType":5126,"count":1,"max":[0,0,0,1],"min":[0,0,0,1],"type":"VEC4"},{"bufferView":31,"componentType":5126,"count":1,"max":[0],"min":[0],"type":"SCALAR"},{"bufferView":32,"componentType":5126,"count":1,"max":[0,0,0,1],"min":[0,0,0,1],"type":"VEC4"},{"bufferView":33,"componentType":5126,"count":1,"max":[0],"min":[0],"type":"SCALAR"},{"bufferView":34,"componentType":5126,"count":1,"max":[0,0,0,1],"min":[0,0,0,1],"type":"VEC4"},{"bufferView":35,"componentType":5126,"count":1,"max":[0],"min":[0],"type":"SCALAR"},{"bufferView":36,"componentType":5126,"count":1,"max":[0,0,0,1],"min":[0,0,0,1],"type":"VEC4"}],"materials":[{"pbrMetallicRoughness":{"metallicFactor":0,"roughnessFactor":1,"baseColorTexture":{"index":0}},"alphaMode":"MASK","alphaCutoff":0.05,"doubleSided":true}],"textures":[{"sampler":0,"source":0}],"samplers":[{"magFilter":9728,"minFilter":9728,"wrapS":33071,"wrapT":33071}],"images":[{"mimeType":"image/png","uri":"data:image/png;base64,"}],"meshes":[{"primitives":[{"mode":4,"attributes":{"POSITION":0,"NORMAL":1,"TEXCOORD_0":2,"JOINTS_0":3,"WEIGHTS_0":4},"indices":5,"material":0}]},{"primitives":[{"mode":4,"attributes":{"POSITION":6,"NORMAL":7,"TEXCOORD_0":8,"JOINTS_0":9,"WEIGHTS_0":10},"indices":11,"material":0}]},{"primitives":[{"mode":4,"attributes":{"POSITION":12,"NORMAL":13,"TEXCOORD_0":14,"JOINTS_0":15,"WEIGHTS_0":16},"indices":17,"material":0}]}],"skins":[{"inverseBindMatrices":18,"joints":[4,3,0,1,2],"skeleton":4},{"inverseBindMatrices":19,"joints":[8,6,7],"skeleton":8},{"inverseBindMatrices":20,"joints":[14,10,11,12,13],"skeleton":14}],"animations":[{"name":"walk","samplers":[{"input":21,"output":22,"interpolation":"LINEAR"},{"input":23,"output":24,"interpolation":"LINEAR"},{"input":25,"output":26,"interpolation":"LINEAR"},{"input":27,"output":28,"interpolation":"LINEAR"}],"channels":[{"sampler":0,"target":{"node":10,"path":"rotation"}},{"sampler":1,"target":{"node":11,"path":"rotation"}},{"sampler":2,"target":{"node":12,"path":"rotation"}},{"sampler":3,"target":{"node":13,"path":"rotation"}}]},{"name":"idle","samplers":[{"input":29,"output":30,"interpolation":"LINEAR"},{"input":31,"output":32,"interpolation":"LINEAR"},{"input":33,"output":34,"interpolation":"LINEAR"},{"input":35,"output":36,"interpolation":"LINEAR"}],"channels":[{"sampler":0,"target":{"node":10,"path":"rotation"}},{"sampler":1,"target":{"node":11,"path":"rotation"}},{"sampler":2,"target":{"node":12,"path":"rotation"}},{"sampler":3,"target":{"node":13,"path":"rotation"}}]}]}